<svg version="1" xmlns="http://www.w3.org/2000/svg" width="646.667" height="646.667" viewBox="0 0 485.000000 485.000000"><path d="M249.6 38.9c-.1.3-.2 9.1-.1 19.5 0 12.1-.3 19-1 19.2-.5.2-10.7.5-22.5.6l-21.5.3-.1 8.7c-.1 5.7.3 8.8 1 8.9.6.1 10.3.2 21.6.4 11.3.1 21 .3 21.5.3.7.1 1 6.5 1 17.9v17.8l-22 .1c-12.1.1-22.3.2-22.7.3-.3.1-.6 4.1-.5 9l.1 8.8 9.1.1c4.9.1 15.1.1 22.5.2h13.5v36h-45.2v9c0 8.5.1 9 2.1 9.1 1.2 0 11.3.1 22.6.2l20.5.2v17.3c0 9.6-.2 17.7-.5 18-.3.4-10.4.7-22.5.7h-22l-.2 7c-.3 12.3-2.6 11.2 21.9 11 11.7 0 21.8.1 22.3.2.6.2 1 7 1 18.1v17.7l-20.5.2c-11.3.1-21.4.2-22.6.2-2 .1-2.1.7-2.1 9.1v9l4.1.1h41.1l-.1 35.7c-.1 19.6-.2 36-.3 36.3 0 .3-25.9.5-57.3.4-31.5 0-57.9.1-58.5.3-.9.3-1.3 3.1-1.3 9.3v8.9l58.7.2 58.8.3.1 18.5c.1 10.2.2 19.1.3 19.7.1.9 2.6 1.3 8.9 1.3h8.8v-63.3c-.1-34.7.1-64.2.3-65.4.3-2.2.5-2.2 20.5-2.2h22.4c2.1-.1 2.2-.5 2.2-9.1v-9l-3.7-.1h-22.4c-16.8 0-18.7-.2-19.1-1.7-.3-1.4-.2-30.2.1-33.7.1-.6 8.3-1 22.6-.9h22.6l-.3-9-.3-9.1h-22.2c-14.2 0-22.3-.4-22.4-1-.3-5-.3-33.9.1-34.5.3-.4 8.6-.8 18.5-.8s19.9-.1 22.3-.1l4.2-.1v-18l-22.7-.2-22.6-.3-.1-16.8c-.1-9.3.2-17.3.5-17.8s10.5-1 22.7-1l22.2-.1V132.5h-22.5c-12.4.1-22.5-.2-22.6-.5-.1-.7-.1-33.3 0-34.6.1-.7 7-1 21.4-.9 11.6 0 21.8-.1 22.5-.3.8-.3 1.2-3.1 1.2-9.3V78l-6.7.1c-3.8 0-14 .1-22.8 0l-16-.1.1-20 .1-20-8.9.2c-4.9.1-9 .4-9.2.7z"/></svg>